<?xml version="1.0" encoding="UTF-8"?>
<svg width="266px" height="55px" viewBox="0 0 266 55" version="1.1" xmlns="http://www.w3.org/2000/svg" xmlns:xlink="http://www.w3.org/1999/xlink">
    <title>logo-NewPCFC</title>
    <g id="Symbol" stroke="none" stroke-width="1" fill="none" fill-rule="evenodd">
        <g id="header-/-web" transform="translate(-1025.000000, -25.000000)" fill-rule="nonzero">
            <g id="color/primary" transform="translate(0.000000, 25.000000)">
                <g id="logo-NewPCFC" transform="translate(1025.000000, 0.000000)">
                    <g id="Group" transform="translate(0.000000, 26.551724)" fill="#575756">
                        <g transform="translate(0.336835, 15.764569)">
                            <path d="M0,0.279513627 L3.31221292,0.279513627 C4.82797138,0.279513627 5.61392021,1.11805451 5.61392021,2.51562265 C5.61392021,3.91319078 4.82797138,4.75173167 3.31221292,4.75173167 L1.01050564,4.75173167 L1.01050564,7.82638157 L0,7.82638157 L0,0.279513627 Z M1.01050564,3.85728806 L2.97537771,3.85728806 C4.09816175,3.85728806 4.60341457,3.35416353 4.60341457,2.45971992 C4.60341457,1.56527631 4.09816175,1.06215178 2.97537771,1.06215178 L1.01050564,1.06215178 L1.01050564,3.85728806 Z" id="Shape"></path>
                            <path d="M9.03841154,2.18020629 C10.7787268,2.18020629 11.676954,3.41006626 11.676954,5.03124529 C11.676954,6.59652161 10.7787268,7.88228429 9.03841154,7.88228429 C7.29809627,7.88228429 6.39986904,6.65242433 6.39986904,5.03124529 C6.39986904,3.46596898 7.29809627,2.18020629 9.03841154,2.18020629 Z M9.03841154,7.09964614 C9.99277798,7.09964614 10.7225876,6.37291071 10.7225876,5.03124529 C10.7225876,3.68957988 9.93663877,2.96284445 9.03841154,2.96284445 C8.14018431,2.96284445 7.35423548,3.68957988 7.35423548,5.03124529 C7.35423548,6.37291071 8.0840451,7.09964614 9.03841154,7.09964614 Z" id="Shape"></path>
                            <path d="M12.6874597,2.34791447 L13.5295477,2.34791447 L13.5295477,3.46596898 L13.5295477,3.46596898 C13.9786613,2.57152537 14.5400533,2.18020629 15.550559,2.18020629 L15.550559,3.13055263 C14.0909397,3.13055263 13.5856869,3.96909351 13.5856869,5.31075892 L13.5856869,7.71457612 L12.6874597,7.71457612 L12.6874597,2.34791447 Z" id="Path"></path>
                            <path d="M17.4592919,2.34791447 L18.5259367,2.34791447 L18.5259367,3.13055263 L17.4592919,3.13055263 L17.4592919,6.48471616 C17.4592919,6.87603524 17.5715703,6.98784069 18.1329623,6.98784069 L18.5259367,6.98784069 L18.5259367,7.77047884 L17.8522663,7.77047884 C16.8978998,7.77047884 16.5610646,7.60277067 16.5610646,6.59652161 L16.5610646,3.13055263 L15.6066982,3.13055263 L15.6066982,2.34791447 L16.5610646,2.34791447 L16.5610646,0.726735431 L17.4592919,0.726735431 L17.4592919,2.34791447 L17.4592919,2.34791447 Z" id="Path"></path>
                            <path d="M20.0978344,6.03749435 C20.1539736,6.82013251 20.827644,7.09964614 21.5574536,7.09964614 C22.1188456,7.09964614 22.8486553,6.98784069 22.8486553,6.31700798 C22.8486553,5.64617527 21.950428,5.53436982 21.0522008,5.31075892 C20.1539736,5.08714802 19.2557463,4.80763439 19.2557463,3.80138533 C19.2557463,2.68333082 20.3223912,2.23610902 21.2767576,2.23610902 C22.4556808,2.23610902 23.4100473,2.6274281 23.5223257,3.91319078 L22.6802377,3.91319078 C22.6240985,3.24235808 22.0065672,3.01874718 21.389036,3.01874718 C20.827644,3.01874718 20.2101128,3.18645535 20.2101128,3.68957988 C20.2101128,4.30450986 21.1644792,4.41631531 22.0065672,4.63992622 C22.9047945,4.86353712 23.8030217,5.14305075 23.8030217,6.20520253 C23.8030217,7.49096522 22.5679592,7.93818702 21.5013144,7.93818702 C20.266252,7.93818702 19.2557463,7.43506249 19.1996071,6.09339708 L20.0978344,6.09339708 L20.0978344,6.03749435 Z" id="Path"></path>
                            <path d="M25.0380841,6.59652161 L26.2170074,6.59652161 L26.2170074,7.65867339 C26.2170074,8.44131155 25.8801722,9.05624153 25.0380841,9.27985243 L25.0380841,8.7767279 C25.4871978,8.60901973 25.6556154,8.1058952 25.6556154,7.77047884 L25.0380841,7.77047884 L25.0380841,6.59652161 Z" id="Path"></path>
                            <path d="M34.8624445,2.51562265 C34.6378877,1.45347086 33.7957997,0.894443608 32.7291548,0.894443608 C30.9327004,0.894443608 30.2028907,2.34791447 30.2028907,3.91319078 C30.2028907,5.64617527 30.9888396,7.04374341 32.785294,7.04374341 C34.0764957,7.04374341 34.8624445,6.09339708 34.9747229,4.86353712 L35.9852286,4.86353712 C35.8168109,6.70832706 34.6378877,7.88228429 32.7291548,7.88228429 C30.3713083,7.88228429 29.2485243,6.1492998 29.2485243,3.96909351 C29.2485243,1.78888722 30.4835867,0 32.785294,0 C34.3571917,0 35.6483933,0.838540882 35.8729501,2.45971992 L34.8624445,2.45971992 L34.8624445,2.51562265 Z" id="Path"></path>
                            <path d="M41.5430096,7.77047884 L40.7009215,7.77047884 L40.7009215,6.87603524 L40.7009215,6.87603524 C40.3079471,7.54686794 39.6904159,7.88228429 38.9044671,7.88228429 C37.4448478,7.88228429 37.0518734,7.04374341 37.0518734,5.9256889 L37.0518734,2.34791447 L37.9501006,2.34791447 L37.9501006,6.03749435 C37.9501006,6.70832706 38.3992142,7.15554886 39.0728847,7.15554886 C40.1395295,7.15554886 40.7009215,6.42881343 40.7009215,5.4784671 L40.7009215,2.4038172 L41.5991488,2.4038172 L41.5991488,7.77047884 L41.5430096,7.77047884 Z" id="Path"></path>
                            <path d="M43.4517424,6.03749435 C43.5078816,6.82013251 44.1815521,7.09964614 44.9113617,7.09964614 C45.4727537,7.09964614 46.2025633,6.98784069 46.2025633,6.31700798 C46.2025633,5.64617527 45.3043361,5.53436982 44.4061089,5.31075892 C43.5078816,5.08714802 42.6096544,4.80763439 42.6096544,3.80138533 C42.6096544,2.68333082 43.6762992,2.23610902 44.6306657,2.23610902 C45.8095889,2.23610902 46.7639554,2.6274281 46.8762338,3.91319078 L45.9780065,3.91319078 C45.9218673,3.24235808 45.3043361,3.01874718 44.6868049,3.01874718 C44.1254129,3.01874718 43.5078816,3.18645535 43.5078816,3.68957988 C43.5078816,4.30450986 44.4622481,4.41631531 45.3043361,4.63992622 C46.2025633,4.86353712 47.1007906,5.14305075 47.1007906,6.20520253 C47.1007906,7.49096522 45.8657281,7.93818702 44.7990833,7.93818702 C43.5640208,7.93818702 42.5535152,7.43506249 42.497376,6.09339708 L43.4517424,6.09339708 L43.4517424,6.03749435 Z" id="Path"></path>
                            <path d="M49.4024979,2.34791447 L50.4691427,2.34791447 L50.4691427,3.13055263 L49.4024979,3.13055263 L49.4024979,6.48471616 C49.4024979,6.87603524 49.5147763,6.98784069 50.0761683,6.98784069 L50.4691427,6.98784069 L50.4691427,7.77047884 L49.7954723,7.77047884 C48.8411058,7.77047884 48.5042706,7.60277067 48.5042706,6.59652161 L48.5042706,3.13055263 L47.5499042,3.13055263 L47.5499042,2.34791447 L48.5042706,2.34791447 L48.5042706,0.726735431 L49.4024979,0.726735431 L49.4024979,2.34791447 Z" id="Path"></path>
                            <path d="M53.8374948,2.18020629 C55.5778101,2.18020629 56.4760373,3.41006626 56.4760373,5.03124529 C56.4760373,6.59652161 55.5778101,7.88228429 53.8374948,7.88228429 C52.0971796,7.88228429 51.1989523,6.65242433 51.1989523,5.03124529 C51.1989523,3.46596898 52.0971796,2.18020629 53.8374948,2.18020629 Z M53.8374948,7.09964614 C54.7918613,7.09964614 55.5216709,6.37291071 55.5216709,5.03124529 C55.5216709,3.68957988 54.7357221,2.96284445 53.8374948,2.96284445 C52.8831284,2.96284445 52.1533188,3.68957988 52.1533188,5.03124529 C52.1533188,6.37291071 52.8831284,7.09964614 53.8374948,7.09964614 Z" id="Shape"></path>
                            <path d="M57.5426822,2.34791447 L58.3847702,2.34791447 L58.3847702,3.13055263 L58.3847702,3.13055263 C58.7777446,2.51562265 59.3952758,2.18020629 60.1250855,2.18020629 C60.7987559,2.18020629 61.4162871,2.45971992 61.6408439,3.13055263 C62.0338183,2.57152537 62.6513496,2.18020629 63.32502,2.18020629 C64.3916648,2.18020629 65.1214744,2.6274281 65.1214744,3.74548261 L65.1214744,7.71457612 L64.2232472,7.71457612 L64.2232472,4.13680169 C64.2232472,3.46596898 64.0548296,2.90694173 63.1566024,2.90694173 C62.3145143,2.90694173 61.7531223,3.46596898 61.7531223,4.30450986 L61.7531223,7.65867339 L60.8548951,7.65867339 L60.8548951,4.08089896 C60.8548951,3.35416353 60.6303383,2.851039 59.8443895,2.851039 C58.7777446,2.851039 58.3847702,3.80138533 58.3847702,4.24860714 L58.3847702,7.60277067 L57.486543,7.60277067 L57.486543,2.34791447 L57.5426822,2.34791447 Z" id="Path"></path>
                            <path d="M67.0863465,6.03749435 C67.1424857,6.82013251 67.8161561,7.09964614 68.5459658,7.09964614 C69.1073578,7.09964614 69.8371674,6.98784069 69.8371674,6.31700798 C69.8371674,5.64617527 68.9389402,5.53436982 68.040713,5.31075892 C67.1424857,5.08714802 66.2442585,4.80763439 66.2442585,3.80138533 C66.2442585,2.68333082 67.3109033,2.23610902 68.2652698,2.23610902 C69.444193,2.23610902 70.3985594,2.6274281 70.5108379,3.91319078 L69.6126106,3.91319078 C69.5564714,3.24235808 68.9389402,3.01874718 68.321409,3.01874718 C67.7600169,3.01874718 67.1424857,3.18645535 67.1424857,3.68957988 C67.1424857,4.30450986 68.0968522,4.41631531 68.9389402,4.63992622 C69.8371674,4.86353712 70.7353947,5.14305075 70.7353947,6.20520253 C70.7353947,7.49096522 69.5003322,7.93818702 68.4336874,7.93818702 C67.1986249,7.93818702 66.1881193,7.43506249 66.1319801,6.09339708 L67.0863465,6.09339708 L67.0863465,6.03749435 Z" id="Path"></path>
                            <path d="M79.5492494,7.71457612 C79.3808318,7.82638157 79.2124142,7.88228429 78.9317182,7.88228429 C78.4826046,7.88228429 78.1457693,7.60277067 78.1457693,7.04374341 C77.6405165,7.60277067 76.9668461,7.88228429 76.2370365,7.88228429 C75.2265308,7.88228429 74.440582,7.43506249 74.440582,6.37291071 C74.440582,5.14305075 75.3388092,4.86353712 76.2931757,4.69582894 C77.3036813,4.52812076 78.1457693,4.58402349 78.1457693,3.91319078 C78.1457693,3.13055263 77.5282381,3.01874718 76.9107069,3.01874718 C76.1247581,3.01874718 75.6195052,3.24235808 75.563366,4.02499624 L74.6651388,4.02499624 C74.721278,2.68333082 75.7879228,2.23610902 76.9668461,2.23610902 C77.9212125,2.23610902 78.9878574,2.45971992 78.9878574,3.74548261 L78.9878574,6.54061888 C78.9878574,6.98784069 78.9878574,7.15554886 79.2685534,7.15554886 C79.3246926,7.15554886 79.436971,7.15554886 79.5492494,7.09964614 L79.5492494,7.71457612 L79.5492494,7.71457612 Z M78.0896301,4.97534257 C77.7527949,5.2548562 77.0791245,5.2548562 76.4615933,5.36666165 C75.8440621,5.4784671 75.3388092,5.702078 75.3388092,6.31700798 C75.3388092,6.93193796 75.8440621,7.09964614 76.4054541,7.09964614 C77.5843773,7.09964614 78.0896301,6.37291071 78.0896301,5.86978618 L78.0896301,4.97534257 Z" id="Shape"></path>
                            <path d="M80.3913374,2.34791447 L81.2334255,2.34791447 L81.2334255,3.18645535 L81.2334255,3.18645535 C81.6263999,2.51562265 82.2439311,2.18020629 83.0298799,2.18020629 C84.4894992,2.18020629 84.8824736,3.01874718 84.8824736,4.13680169 L84.8824736,7.71457612 L83.9842464,7.71457612 L83.9842464,4.08089896 C83.9842464,3.41006626 83.5351327,2.96284445 82.8614623,2.96284445 C81.7948175,2.96284445 81.2334255,3.68957988 81.2334255,4.63992622 L81.2334255,7.71457612 L80.3351982,7.71457612 L80.3351982,2.34791447 L80.3913374,2.34791447 Z" id="Path"></path>
                            <path d="M91.113925,7.77047884 L90.2156978,7.77047884 L90.2156978,7.04374341 L90.2156978,7.04374341 C89.9350018,7.65867339 89.2051922,7.88228429 88.4753825,7.88228429 C86.7912065,7.88228429 85.9491184,6.54061888 85.9491184,5.03124529 C85.9491184,3.52187171 86.7912065,2.23610902 88.4192433,2.23610902 C88.9806353,2.23610902 89.7665842,2.45971992 90.1595586,3.0746499 L90.1595586,3.0746499 L90.1595586,0.279513627 L91.0577858,0.279513627 L91.0577858,7.77047884 L91.113925,7.77047884 Z M88.5876609,7.09964614 C89.7665842,7.09964614 90.271837,6.09339708 90.271837,5.03124529 C90.271837,3.96909351 89.7665842,2.96284445 88.5315217,2.96284445 C87.2964593,2.96284445 86.9034849,4.02499624 86.9034849,5.08714802 C86.9034849,6.09339708 87.4087377,7.09964614 88.5876609,7.09964614 Z" id="Shape"></path>
                            <polygon id="Path" points="95.548922 0.279513627 100.489172 0.279513627 100.489172 1.11805451 96.5594276 1.11805451 96.5594276 3.52187171 100.040058 3.52187171 100.040058 4.36041259 96.5594276 4.36041259 96.5594276 7.77047884 95.548922 7.77047884"></polygon>
                            <path d="M101.443538,2.34791447 L102.285626,2.34791447 L102.285626,3.46596898 L102.285626,3.46596898 C102.73474,2.57152537 103.296132,2.18020629 104.306638,2.18020629 L104.306638,3.13055263 C102.847018,3.13055263 102.341765,3.96909351 102.341765,5.31075892 L102.341765,7.71457612 L101.443538,7.71457612 L101.443538,2.34791447 Z" id="Path"></path>
                            <path d="M109.246887,6.03749435 C109.02233,7.21145159 108.124103,7.88228429 106.94518,7.88228429 C105.204865,7.88228429 104.362777,6.70832706 104.306638,5.03124529 C104.306638,3.41006626 105.373282,2.23610902 106.889041,2.23610902 C108.797774,2.23610902 109.415305,4.02499624 109.359166,5.36666165 L105.261004,5.36666165 C105.204865,6.31700798 105.766257,7.15554886 106.94518,7.15554886 C107.67499,7.15554886 108.180242,6.82013251 108.34866,6.09339708 L109.246887,6.09339708 L109.246887,6.03749435 Z M108.34866,4.52812076 C108.292521,3.68957988 107.67499,3.01874718 106.776762,3.01874718 C105.822396,3.01874718 105.261004,3.74548261 105.204865,4.52812076 L108.34866,4.52812076 Z" id="Shape"></path>
                            <path d="M114.916947,6.03749435 C114.69239,7.21145159 113.794163,7.88228429 112.615239,7.88228429 C110.874924,7.88228429 110.032836,6.70832706 109.976697,5.03124529 C109.976697,3.41006626 111.043342,2.23610902 112.5591,2.23610902 C114.467833,2.23610902 115.085364,4.02499624 115.029225,5.36666165 L110.931063,5.36666165 C110.874924,6.31700798 111.436316,7.15554886 112.615239,7.15554886 C113.345049,7.15554886 113.850302,6.82013251 114.018719,6.09339708 L114.916947,6.09339708 L114.916947,6.03749435 Z M114.018719,4.52812076 C113.96258,3.68957988 113.345049,3.01874718 112.446822,3.01874718 C111.492455,3.01874718 110.931063,3.74548261 110.874924,4.52812076 L114.018719,4.52812076 Z" id="Shape"></path>
                            <polygon id="Path" points="118.397577 6.93193796 123.057131 1.11805451 118.734412 1.11805451 118.734412 0.279513627 124.236054 0.279513627 124.236054 1.11805451 119.5765 6.93193796 124.348333 6.93193796 124.348333 7.77047884 118.341438 7.77047884 118.341438 6.93193796"></polygon>
                            <path d="M127.604406,2.18020629 C129.344722,2.18020629 130.242949,3.41006626 130.242949,5.03124529 C130.242949,6.59652161 129.344722,7.88228429 127.604406,7.88228429 C125.864091,7.88228429 124.965864,6.65242433 124.965864,5.03124529 C124.965864,3.46596898 125.92023,2.18020629 127.604406,2.18020629 Z M127.604406,7.09964614 C128.558773,7.09964614 129.288582,6.37291071 129.288582,5.03124529 C129.288582,3.68957988 128.502634,2.96284445 127.604406,2.96284445 C126.65004,2.96284445 125.92023,3.68957988 125.92023,5.03124529 C125.92023,6.37291071 126.706179,7.09964614 127.604406,7.09964614 Z" id="Shape"></path>
                            <path d="M131.309594,2.34791447 L132.151682,2.34791447 L132.151682,3.18645535 L132.151682,3.18645535 C132.544656,2.51562265 133.162187,2.18020629 133.948136,2.18020629 C135.407755,2.18020629 135.80073,3.01874718 135.80073,4.13680169 L135.80073,7.71457612 L134.958642,7.71457612 L134.958642,4.08089896 C134.958642,3.41006626 134.509528,2.96284445 133.835858,2.96284445 C132.769213,2.96284445 132.207821,3.68957988 132.207821,4.63992622 L132.207821,7.71457612 L131.309594,7.71457612 L131.309594,2.34791447 Z" id="Path"></path>
                            <path d="M141.807625,6.03749435 C141.583068,7.21145159 140.68484,7.88228429 139.505917,7.88228429 C137.765602,7.88228429 136.923514,6.70832706 136.867375,5.03124529 C136.867375,3.41006626 137.93402,2.23610902 139.449778,2.23610902 C141.358511,2.23610902 141.976042,4.02499624 141.919903,5.36666165 L137.821741,5.36666165 C137.765602,6.31700798 138.326994,7.15554886 139.505917,7.15554886 C140.235727,7.15554886 140.74098,6.82013251 140.909397,6.09339708 L141.807625,6.09339708 L141.807625,6.03749435 Z M140.965537,4.52812076 C140.909397,3.68957988 140.291866,3.01874718 139.393639,3.01874718 C138.439272,3.01874718 137.87788,3.74548261 137.821741,4.52812076 L140.965537,4.52812076 Z" id="Shape"></path>
                            <path d="M151.182871,2.51562265 C150.958314,1.45347086 150.116226,0.894443608 149.049582,0.894443608 C147.253127,0.894443608 146.523318,2.34791447 146.523318,3.91319078 C146.523318,5.64617527 147.309266,7.04374341 149.105721,7.04374341 C150.396922,7.04374341 151.182871,6.09339708 151.29515,4.86353712 L152.305655,4.86353712 C152.137238,6.70832706 150.958314,7.88228429 149.049582,7.88228429 C146.691735,7.88228429 145.568951,6.1492998 145.568951,3.96909351 C145.568951,1.78888722 146.804014,0 149.105721,0 C150.677618,0 151.96882,0.838540882 152.193377,2.45971992 L151.182871,2.45971992 L151.182871,2.51562265 Z" id="Path"></path>
                            <path d="M155.730147,2.18020629 C157.470462,2.18020629 158.368689,3.41006626 158.368689,5.03124529 C158.368689,6.59652161 157.470462,7.88228429 155.730147,7.88228429 C153.989831,7.88228429 153.091604,6.65242433 153.091604,5.03124529 C153.091604,3.46596898 153.989831,2.18020629 155.730147,2.18020629 Z M155.730147,7.09964614 C156.684513,7.09964614 157.414323,6.37291071 157.414323,5.03124529 C157.414323,3.68957988 156.628374,2.96284445 155.730147,2.96284445 C154.77578,2.96284445 154.045971,3.68957988 154.045971,5.03124529 C154.045971,6.37291071 154.77578,7.09964614 155.730147,7.09964614 Z" id="Shape"></path>
                            <path d="M159.379195,2.34791447 L160.221283,2.34791447 L160.221283,3.46596898 L160.221283,3.46596898 C160.670396,2.57152537 161.231788,2.18020629 162.242294,2.18020629 L162.242294,3.13055263 C160.782675,3.13055263 160.277422,3.96909351 160.277422,5.31075892 L160.277422,7.71457612 L159.379195,7.71457612 L159.379195,2.34791447 Z" id="Path"></path>
                            <path d="M162.972104,2.34791447 L163.870331,2.34791447 L163.870331,3.0746499 L163.870331,3.0746499 C164.151027,2.45971992 164.880837,2.23610902 165.610646,2.23610902 C167.294822,2.23610902 168.13691,3.57777443 168.13691,5.08714802 C168.13691,6.59652161 167.294822,7.88228429 165.666785,7.88228429 C165.105393,7.88228429 164.319445,7.65867339 163.92647,7.04374341 L163.92647,7.04374341 L163.92647,9.83887969 L163.028243,9.83887969 L163.028243,2.34791447 L162.972104,2.34791447 Z M165.498368,2.96284445 C164.319445,2.96284445 163.814192,3.96909351 163.814192,5.03124529 C163.814192,6.09339708 164.319445,7.09964614 165.554507,7.09964614 C166.789569,7.09964614 167.182544,6.03749435 167.182544,4.97534257 C167.182544,3.96909351 166.677291,2.96284445 165.498368,2.96284445 Z" id="Shape"></path>
                            <path d="M171.561402,2.18020629 C173.301717,2.18020629 174.199944,3.41006626 174.199944,5.03124529 C174.199944,6.59652161 173.301717,7.88228429 171.561402,7.88228429 C169.821086,7.88228429 168.922859,6.65242433 168.922859,5.03124529 C168.86672,3.46596898 169.821086,2.18020629 171.561402,2.18020629 Z M171.561402,7.09964614 C172.515768,7.09964614 173.245578,6.37291071 173.245578,5.03124529 C173.245578,3.68957988 172.459629,2.96284445 171.561402,2.96284445 C170.607035,2.96284445 169.877226,3.68957988 169.877226,5.03124529 C169.821086,6.37291071 170.607035,7.09964614 171.561402,7.09964614 Z" id="Shape"></path>
                            <path d="M175.21045,2.34791447 L176.052538,2.34791447 L176.052538,3.46596898 L176.052538,3.46596898 C176.501651,2.57152537 177.063043,2.18020629 178.073549,2.18020629 L178.073549,3.13055263 C176.61393,3.13055263 176.108677,3.96909351 176.108677,5.31075892 L176.108677,7.71457612 L175.21045,7.71457612 L175.21045,2.34791447 Z" id="Path"></path>
                            <path d="M183.575191,7.71457612 C183.406773,7.82638157 183.238356,7.88228429 182.95766,7.88228429 C182.508546,7.88228429 182.171711,7.60277067 182.171711,7.04374341 C181.666458,7.60277067 180.992788,7.88228429 180.262978,7.88228429 C179.252472,7.88228429 178.466524,7.43506249 178.466524,6.37291071 C178.466524,5.14305075 179.364751,4.86353712 180.319117,4.69582894 C181.329623,4.52812076 182.171711,4.58402349 182.171711,3.91319078 C182.171711,3.13055263 181.55418,3.01874718 180.936648,3.01874718 C180.1507,3.01874718 179.645447,3.24235808 179.589308,4.02499624 L178.69108,4.02499624 C178.74722,2.68333082 179.813864,2.23610902 180.992788,2.23610902 C181.947154,2.23610902 183.013799,2.45971992 183.013799,3.74548261 L183.013799,6.54061888 C183.013799,6.98784069 183.013799,7.15554886 183.294495,7.15554886 C183.350634,7.15554886 183.462912,7.15554886 183.575191,7.09964614 L183.575191,7.71457612 L183.575191,7.71457612 Z M182.115572,4.97534257 C181.778736,5.2548562 181.105066,5.2548562 180.487535,5.36666165 C179.870004,5.4784671 179.364751,5.702078 179.364751,6.31700798 C179.364751,6.93193796 179.870004,7.09964614 180.431396,7.09964614 C181.610319,7.09964614 182.115572,6.37291071 182.115572,5.86978618 L182.115572,4.97534257 Z" id="Shape"></path>
                            <path d="M185.652341,2.34791447 L186.718986,2.34791447 L186.718986,3.13055263 L185.652341,3.13055263 L185.652341,6.48471616 C185.652341,6.87603524 185.76462,6.98784069 186.326012,6.98784069 L186.718986,6.98784069 L186.718986,7.77047884 L186.045316,7.77047884 C185.090949,7.77047884 184.754114,7.60277067 184.754114,6.59652161 L184.754114,3.13055263 L183.799748,3.13055263 L183.799748,2.34791447 L184.754114,2.34791447 L184.754114,0.726735431 L185.652341,0.726735431 L185.652341,2.34791447 Z" id="Path"></path>
                            <path d="M188.785631,1.34166541 L187.785631,1.34166541 L187.785631,0.223610902 L188.785631,0.223610902 L188.785631,1.34166541 Z M187.785631,2.34791447 L188.785631,2.34791447 L188.785631,7.77047884 L187.785631,7.77047884 L187.785631,2.34791447 Z" id="Shape"></path>
                            <path d="M192.389046,2.18020629 C194.129361,2.18020629 195.027588,3.41006626 195.027588,5.03124529 C195.027588,6.59652161 194.129361,7.88228429 192.389046,7.88228429 C190.64873,7.88228429 189.750503,6.65242433 189.750503,5.03124529 C189.750503,3.46596898 190.70487,2.18020629 192.389046,2.18020629 Z M192.389046,7.09964614 C193.343412,7.09964614 194.073222,6.37291071 194.073222,5.03124529 C194.073222,3.68957988 193.287273,2.96284445 192.389046,2.96284445 C191.434679,2.96284445 190.70487,3.68957988 190.70487,5.03124529 C190.70487,6.37291071 191.490818,7.09964614 192.389046,7.09964614 Z" id="Shape"></path>
                            <path d="M196.094233,2.34791447 L196.936321,2.34791447 L196.936321,3.18645535 L196.936321,3.18645535 C197.329295,2.51562265 197.946827,2.18020629 198.732775,2.18020629 C200.192395,2.18020629 200.585369,3.01874718 200.585369,4.13680169 L200.585369,7.71457612 L199.687142,7.71457612 L199.687142,4.08089896 C199.687142,3.41006626 199.238028,2.96284445 198.564358,2.96284445 C197.497713,2.96284445 196.936321,3.68957988 196.936321,4.63992622 L196.936321,7.71457612 L196.038094,7.71457612 L196.038094,2.34791447 L196.094233,2.34791447 Z" id="Path"></path>
                        </g>
                        <g>
                            <path d="M4.77183218,5.86978618 C4.77183218,7.49096522 4.09816175,8.83263063 2.41398569,8.83263063 C0.729809627,8.83263063 0,7.49096522 0,5.86978618 C0,4.30450986 0.673670425,2.90694173 2.35784649,2.90694173 C4.04202255,2.90694173 4.77183218,4.30450986 4.77183218,5.86978618 Z M3.87360495,5.86978618 C3.87360495,4.41631531 3.36835213,3.68957988 2.35784649,3.68957988 C1.34734085,3.68957988 0.898227234,4.47221804 0.898227234,5.86978618 C0.898227234,7.32325704 1.40348005,8.04999247 2.41398569,8.04999247 C3.42449133,8.04999247 3.87360495,7.32325704 3.87360495,5.86978618 Z M1.51575846,1.28576269 C1.17892324,1.28576269 0.954366436,1.11805451 0.954366436,0.726735431 C0.954366436,0.391319078 1.12278404,0.167708176 1.51575846,0.167708176 C1.90873287,0.167708176 2.02101128,0.335416353 2.02101128,0.726735431 C2.07715048,1.11805451 1.90873287,1.28576269 1.51575846,1.28576269 Z M3.19993452,1.28576269 C2.86309931,1.28576269 2.6946817,1.11805451 2.6946817,0.726735431 C2.6946817,0.391319078 2.86309931,0.167708176 3.19993452,0.167708176 C3.53676973,0.167708176 3.76132654,0.335416353 3.76132654,0.726735431 C3.76132654,1.11805451 3.59290894,1.28576269 3.19993452,1.28576269 Z" id="Shape"></path>
                            <path d="M10.8910052,8.04999247 L10.8910052,8.88853335 L9.15068994,8.88853335 C9.03841154,10.2861015 8.30860191,11.3482533 6.73670425,11.3482533 C6.39986904,11.3482533 5.83847702,11.2364478 5.3893634,11.0687396 L4.99638899,10.1183933 C5.61392021,10.5097124 6.17531223,10.5656151 6.62442585,10.5656151 C7.74720989,10.5656151 8.30860191,9.61526878 8.30860191,8.553117 L8.30860191,3.41006626 L9.20682915,3.13055263 L9.20682915,8.1058952 L10.8910052,8.1058952 L10.8910052,8.04999247 Z" id="Path"></path>
                            <path d="M19.1996071,8.88853335 L10.7787268,8.88853335 L10.7787268,8.04999247 L16.4487862,8.04999247 L16.4487862,7.21145159 C16.4487862,5.53436982 16.3365078,3.80138533 14.3716357,3.80138533 C13.7541045,3.80138533 13.0804341,4.08089896 12.4067637,4.69582894 L11.8453716,4.13680169 C12.6874597,3.35416353 13.5295477,3.01874718 14.3716357,3.01874718 C16.954039,3.01874718 17.3470135,5.03124529 17.3470135,6.98784069 L17.3470135,8.1058952 L19.1996071,8.1058952 L19.1996071,8.88853335 Z" id="Path"></path>
                            <path d="M21.950428,6.65242433 C21.950428,7.93818702 21.10834,8.83263063 19.7609991,8.83263063 L19.0873287,8.83263063 L19.0873287,7.99408975 L19.7048599,7.99408975 C20.6030872,7.99408975 21.0522008,7.49096522 21.0522008,6.48471616 L21.0522008,0.950346333 L21.950428,0.670832706 L21.950428,6.65242433 Z" id="Path"></path>
                            <polygon id="Path" points="24.1959961 8.88853335 23.2977689 8.88853335 23.2977689 0.894443608 24.1959961 0.61492998"></polygon>
                            <path d="M33.7396605,8.88853335 L33.2905469,8.88853335 C32.4484588,8.88853335 31.8309276,8.60901973 31.4379532,7.99408975 C31.101118,8.60901973 30.4835867,8.88853335 29.5853595,8.88853335 C28.2380187,8.88853335 27.3959306,7.99408975 27.3959306,5.98159163 C27.3959306,4.36041259 28.0134619,3.13055263 29.5853595,3.0746499 L31.9993452,3.0746499 L31.9993452,6.54061888 C31.9993452,7.54686794 32.4484588,8.04999247 33.4028253,8.04999247 L33.7396605,8.04999247 L33.7396605,8.88853335 Z M31.101118,3.85728806 L29.6976379,3.85728806 C28.7432715,3.85728806 28.2380187,4.58402349 28.2380187,5.98159163 C28.2380187,7.43506249 28.6871323,8.04999247 29.6976379,8.04999247 C30.6520044,8.04999247 31.101118,7.43506249 31.101118,5.98159163 L31.101118,3.85728806 Z M29.3608027,1.45347086 C29.0239675,1.45347086 28.7994107,1.28576269 28.7994107,0.894443608 C28.7994107,0.503124529 28.9678283,0.335416353 29.3608027,0.335416353 C29.7537771,0.335416353 29.8660555,0.503124529 29.8660555,0.894443608 C29.8660555,1.28576269 29.7537771,1.45347086 29.3608027,1.45347086 Z M31.0449788,1.45347086 C30.7081436,1.45347086 30.5397259,1.28576269 30.5397259,0.894443608 C30.5397259,0.503124529 30.7081436,0.335416353 31.0449788,0.335416353 C31.381814,0.335416353 31.6063708,0.503124529 31.6063708,0.894443608 C31.6063708,1.28576269 31.4379532,1.45347086 31.0449788,1.45347086 Z" id="Shape"></path>
                            <path d="M39.7465551,8.88853335 L38.1185182,8.88853335 C37.8939614,8.88853335 37.3887086,8.83263063 37.0518734,8.66492245 C36.7711774,8.83263063 36.378203,8.88853335 35.9852286,8.88853335 L33.6273821,8.88853335 L33.6273821,8.04999247 C33.6273821,8.04999247 34.4694701,8.04999247 34.8063053,8.04999247 C35.3676973,8.04999247 35.8168109,8.04999247 36.0413678,8.04999247 C34.8624445,7.21145159 34.3010525,6.03749435 34.3571917,4.97534257 C34.4694701,3.63367716 35.4799757,2.96284445 36.7711774,2.96284445 C38.2869358,3.01874718 39.1851631,4.02499624 39.1851631,5.53436982 C39.1851631,6.48471616 38.7921887,7.43506249 38.0062398,7.99408975 C38.2869358,8.04999247 38.3992142,8.04999247 38.7921887,8.04999247 C39.0167455,8.04999247 39.6904159,8.04999247 39.6904159,8.04999247 L39.6904159,8.88853335 L39.7465551,8.88853335 Z M37.0518734,7.77047884 C37.8939614,7.43506249 38.3992142,6.48471616 38.3992142,5.59027255 C38.3992142,4.52812076 37.781683,3.80138533 36.7150382,3.74548261 C35.8168109,3.74548261 35.1992797,4.30450986 35.1992797,5.19895347 C35.1992797,5.702078 35.3676973,6.1492998 35.6483933,6.65242433 C35.9290894,7.09964614 36.4904814,7.54686794 37.0518734,7.77047884 Z M35.7606717,1.34166541 C35.4238365,1.34166541 35.1992797,1.17395724 35.1992797,0.782638157 C35.1992797,0.447221804 35.3676973,0.223610902 35.7606717,0.223610902 C36.1536462,0.223610902 36.2659246,0.391319078 36.2659246,0.782638157 C36.3220638,1.17395724 36.1536462,1.34166541 35.7606717,1.34166541 Z M37.4448478,1.34166541 C37.1080126,1.34166541 36.939595,1.17395724 36.939595,0.782638157 C36.939595,0.447221804 37.1080126,0.223610902 37.4448478,0.223610902 C37.781683,0.223610902 38.0062398,0.391319078 38.0062398,0.782638157 C38.0062398,1.17395724 37.8378222,1.34166541 37.4448478,1.34166541 Z" id="Shape"></path>
                            <path d="M41.0377567,1.17395724 L41.935984,0.894443608 L41.935984,5.9256889 C42.8342112,4.13680169 44.4622481,3.18645535 45.8657281,3.2982608 C47.5499042,3.41006626 48.7288274,4.75173167 48.7288274,7.09964614 C48.7288274,7.37915977 48.7288274,7.65867339 48.6726882,8.04999247 L49.7954723,8.04999247 L49.7954723,8.88853335 L39.6342767,8.88853335 L39.6342767,8.04999247 L41.0377567,8.04999247 L41.0377567,1.17395724 Z M47.7183218,8.04999247 C47.774461,7.71457612 47.774461,7.43506249 47.774461,7.21145159 C47.774461,5.14305075 47.0446514,3.96909351 45.4727537,3.96909351 C43.8447168,3.96909351 41.935984,5.9256889 41.7675664,8.1058952 L47.7183218,8.1058952 L47.7183218,8.04999247 Z" id="Shape"></path>
                            <path d="M54.17433,8.88853335 L53.612938,8.88853335 C52.8831284,8.88853335 52.209458,8.553117 51.928762,7.99408975 C51.5357875,8.553117 50.9182563,8.88853335 50.1323075,8.88853335 L49.5147763,8.88853335 L49.5147763,8.04999247 L50.0200291,8.04999247 C50.9182563,8.04999247 51.4235091,7.54686794 51.4235091,6.54061888 L51.4235091,3.35416353 L52.3217364,3.0746499 L52.3217364,6.65242433 C52.3217364,7.60277067 52.77085,8.04999247 53.6690772,8.04999247 L54.2304692,8.04999247 L54.2304692,8.88853335 L54.17433,8.88853335 Z M51.928762,1.45347086 C51.5919267,1.45347086 51.3673699,1.28576269 51.3673699,0.894443608 C51.3673699,0.503124529 51.5357875,0.335416353 51.928762,0.335416353 C52.3217364,0.335416353 52.4340148,0.503124529 52.4340148,0.894443608 C52.4340148,1.28576269 52.2655972,1.45347086 51.928762,1.45347086 Z" id="Shape"></path>
                            <path d="M62.7074888,8.88853335 L62.0899575,8.88853335 C61.3601479,8.88853335 60.8548951,8.72082518 60.4057815,8.27360337 C60.1250855,9.22394971 59.3952758,9.72707424 58.328631,9.72707424 C57.2619862,9.72707424 56.6444549,9.22394971 56.2514805,8.38540882 C55.8585061,8.72082518 55.3532533,8.88853335 54.7357221,8.88853335 L54.0620516,8.88853335 L54.0620516,8.04999247 L54.6795829,8.04999247 C55.4655317,8.04999247 55.9707845,7.60277067 56.0269237,6.82013251 C56.0830629,5.31075892 56.7005941,4.19270441 58.328631,4.19270441 C59.7882502,4.19270441 60.4619207,5.08714802 60.5741991,6.54061888 C60.5741991,7.54686794 61.0233127,8.04999247 61.9776791,8.04999247 L62.7074888,8.04999247 L62.7074888,8.88853335 L62.7074888,8.88853335 Z M58.328631,5.03124529 C57.3742646,5.03124529 56.9812901,5.64617527 56.9812901,6.93193796 C56.9812901,8.27360337 57.3742646,8.88853335 58.328631,8.88853335 C59.2829974,8.88853335 59.6759718,8.27360337 59.6759718,6.93193796 C59.6759718,5.64617527 59.2829974,5.03124529 58.328631,5.03124529 Z" id="Shape"></path>
                            <path d="M65.4583097,6.65242433 C65.4583097,7.93818702 64.6162216,8.83263063 63.2688808,8.83263063 L62.5952104,8.83263063 L62.5952104,7.99408975 L63.2127416,7.99408975 C64.1109688,7.99408975 64.5600824,7.49096522 64.5600824,6.48471616 L64.5600824,0.950346333 L65.4583097,0.670832706 L65.4583097,6.65242433 L65.4583097,6.65242433 Z" id="Path"></path>
                            <polygon id="Path" points="67.7038777 8.88853335 66.8056505 8.88853335 66.8056505 0.894443608 67.7038777 0.61492998"></polygon>
                            <path d="M73.3739372,8.3295061 C73.3739372,10.174296 72.5879883,11.3482533 70.7915339,11.3482533 C70.3424202,11.3482533 69.9494458,11.2364478 69.5564714,11.0687396 L69.1073578,10.0624906 C69.7810282,10.3979069 70.3424202,10.5097124 70.7915339,10.5097124 C71.9143179,10.5097124 72.4757099,9.67117151 72.4195707,8.44131155 C72.0265963,8.72082518 71.5774827,8.88853335 71.0722299,8.88853335 C69.6687498,8.88853335 68.7705226,7.93818702 68.7705226,6.09339708 C68.7705226,4.19270441 69.6126106,3.24235808 71.0722299,3.24235808 C72.5879883,3.24235808 73.4300764,4.41631531 73.317798,5.98159163 L73.317798,8.3295061 L73.3739372,8.3295061 Z M71.0722299,4.02499624 C70.1178634,4.02499624 69.6687498,4.69582894 69.6687498,6.09339708 C69.6687498,7.43506249 70.1178634,8.1058952 71.0722299,8.1058952 C71.9704571,8.1058952 72.4757099,7.43506249 72.4757099,6.09339708 C72.4757099,4.69582894 72.0265963,4.02499624 71.0722299,4.02499624 Z" id="Shape"></path>
                            <path d="M85.275448,6.65242433 C85.275448,7.99408975 84.3772208,8.83263063 83.0860191,8.83263063 L78.6510222,8.83263063 C77.4159597,8.83263063 76.5738717,7.99408975 76.5738717,6.65242433 L76.5738717,4.97534257 L77.4720989,3.91319078 L77.4720989,6.54061888 C77.4720989,7.54686794 77.9212125,8.04999247 78.875579,8.04999247 L83.0860191,8.04999247 C83.9842464,8.04999247 84.43336,7.54686794 84.43336,6.54061888 L84.43336,0.950346333 L85.3315872,0.670832706 L85.3315872,6.65242433 L85.275448,6.65242433 Z M82.5807663,5.08714802 L78.875579,5.08714802 L79.436971,4.52812076 L79.998363,4.52812076 L79.998363,4.19270441 C79.998363,3.2982608 80.559755,2.6274281 81.4579823,2.6274281 C81.8509567,2.6274281 82.1316527,2.79513627 82.4684879,3.0746499 L82.0193743,3.52187171 C81.7948175,3.2982608 81.5702607,3.18645535 81.4018431,3.18645535 C80.9527294,3.18645535 80.6158942,3.57777443 80.6158942,4.08089896 L80.6158942,4.52812076 L82.6369055,4.52812076 L82.6369055,5.08714802 L82.5807663,5.08714802 Z" id="Shape"></path>
                            <path d="M89.6543058,8.38540882 C89.6543058,10.0624906 88.9806353,11.3482533 87.1841809,11.3482533 C86.8473457,11.3482533 86.2859536,11.2364478 85.83684,11.0687396 L85.4438656,10.1183933 C86.0613968,10.5097124 86.6227889,10.5656151 87.0719025,10.5656151 C88.1946865,10.5656151 88.7560785,9.61526878 88.7560785,8.553117 L88.7560785,3.41006626 L89.6543058,3.13055263 L89.6543058,8.38540882 Z" id="Path"></path>
                            <path d="M91.9560131,0.61492998 L91.9560131,7.26735431 C91.9560131,7.77047884 92.1805699,8.04999247 92.6858227,8.04999247 L93.9208851,8.04999247 L93.9208851,8.88853335 L92.5735443,8.88853335 C91.6191778,8.88853335 91.113925,8.3295061 91.113925,7.32325704 L91.113925,0.894443608 L91.9560131,0.61492998 L91.9560131,0.61492998 Z" id="Path"></path>
                            <path d="M102.397905,8.88853335 L101.780373,8.88853335 C101.050564,8.88853335 100.545311,8.72082518 100.096197,8.27360337 C99.8155014,9.22394971 99.0856917,9.72707424 98.0190469,9.72707424 C96.952402,9.72707424 96.3348708,9.22394971 95.9418964,8.38540882 C95.548922,8.72082518 95.0436692,8.88853335 94.426138,8.88853335 L93.7524675,8.88853335 L93.7524675,8.04999247 L94.3699987,8.04999247 C95.1559476,8.04999247 95.6612004,7.60277067 95.7173396,6.82013251 C95.7734788,5.31075892 96.39101,4.19270441 98.0190469,4.19270441 C99.4786661,4.19270441 100.152337,5.08714802 100.264615,6.54061888 C100.264615,7.54686794 100.713729,8.04999247 101.668095,8.04999247 L102.397905,8.04999247 L102.397905,8.88853335 Z M98.0190469,5.03124529 C97.0646804,5.03124529 96.671706,5.64617527 96.671706,6.93193796 C96.671706,8.27360337 97.0646804,8.88853335 98.0190469,8.88853335 C98.9734133,8.88853335 99.3663877,8.27360337 99.3663877,6.93193796 C99.3663877,5.64617527 98.9734133,5.03124529 98.0190469,5.03124529 Z" id="Shape"></path>
                            <path d="M110.706507,8.88853335 L102.285626,8.88853335 L102.285626,8.04999247 L107.955686,8.04999247 L107.955686,7.21145159 C107.955686,5.53436982 107.843407,3.80138533 105.878535,3.80138533 C105.261004,3.80138533 104.587334,4.08089896 103.913663,4.69582894 L103.352271,4.13680169 C104.194359,3.35416353 105.036447,3.01874718 105.878535,3.01874718 C108.460938,3.01874718 108.853913,5.03124529 108.853913,6.98784069 L108.853913,8.1058952 L110.706507,8.1058952 L110.706507,8.88853335 L110.706507,8.88853335 Z M106.046953,11.6277669 C105.710118,11.6277669 105.485561,11.4600587 105.485561,11.0687396 C105.485561,10.7333233 105.653978,10.5097124 106.046953,10.5097124 C106.439927,10.5097124 106.552206,10.6774206 106.552206,11.0687396 C106.552206,11.404156 106.383788,11.6277669 106.046953,11.6277669 Z" id="Shape"></path>
                            <path d="M113.457327,6.65242433 C113.457327,7.93818702 112.615239,8.83263063 111.267899,8.83263063 L110.594228,8.83263063 L110.594228,7.99408975 L111.211759,7.99408975 C112.109987,7.99408975 112.5591,7.49096522 112.5591,6.48471616 L112.5591,0.950346333 L113.457327,0.670832706 L113.457327,6.65242433 Z" id="Path"></path>
                            <polygon id="Path" points="115.702896 8.88853335 114.804668 8.88853335 114.804668 0.894443608 115.702896 0.61492998"></polygon>
                            <path d="M121.372955,8.3295061 C121.372955,10.174296 120.587006,11.3482533 118.790552,11.3482533 C118.341438,11.3482533 117.948464,11.2364478 117.555489,11.0687396 L117.106376,10.0624906 C117.780046,10.3979069 118.341438,10.5097124 118.790552,10.5097124 C119.913336,10.5097124 120.474728,9.67117151 120.418589,8.44131155 C120.025614,8.72082518 119.5765,8.88853335 119.071248,8.88853335 C117.667768,8.88853335 116.76954,7.93818702 116.76954,6.09339708 C116.76954,4.19270441 117.611628,3.24235808 119.071248,3.24235808 C120.587006,3.24235808 121.429094,4.41631531 121.316816,5.98159163 L121.316816,8.3295061 L121.372955,8.3295061 Z M119.071248,4.02499624 C118.116881,4.02499624 117.667768,4.69582894 117.667768,6.09339708 C117.667768,7.43506249 118.116881,8.1058952 119.071248,8.1058952 C119.969475,8.1058952 120.474728,7.43506249 120.474728,6.09339708 C120.474728,4.69582894 120.025614,4.02499624 119.071248,4.02499624 Z" id="Shape"></path>
                            <path d="M127.772824,4.08089896 L124.067637,4.08089896 L124.629029,3.52187171 L125.190421,3.52187171 L125.190421,3.24235808 C125.190421,2.34791447 125.751813,1.67708176 126.65004,1.67708176 C127.043014,1.67708176 127.32371,1.84478994 127.660546,2.12430357 L127.211432,2.57152537 C126.986875,2.34791447 126.762318,2.23610902 126.593901,2.23610902 C126.144787,2.23610902 125.807952,2.6274281 125.807952,3.13055263 L125.807952,3.57777443 L127.828963,3.57777443 L127.828963,4.08089896 L127.772824,4.08089896 Z M124.572889,7.99408975 C124.572889,7.26735431 124.741307,6.42881343 125.078142,5.53436982 L126.032509,4.86353712 C125.583395,6.03749435 125.414978,7.04374341 125.414978,7.71457612 C125.414978,9.22394971 126.088648,10.3979069 127.660546,10.3979069 C128.951747,10.3979069 129.906114,9.89478241 129.962253,8.7767279 C129.064026,8.7767279 128.558773,8.3295061 128.334216,7.71457612 L128.72719,6.82013251 C129.007886,7.54686794 129.457,7.93818702 130.074531,7.93818702 L130.804341,7.93818702 L130.804341,8.7767279 C130.804341,10.174296 129.625418,11.2364478 127.604406,11.2364478 C125.639534,11.3482533 124.572889,9.95068514 124.572889,7.99408975 Z" id="Shape"></path>
                            <path d="M133.66744,6.65242433 C133.66744,7.93818702 132.825352,8.83263063 131.478011,8.83263063 L130.804341,8.83263063 L130.804341,7.99408975 L131.421872,7.99408975 C132.320099,7.99408975 132.769213,7.49096522 132.769213,6.48471616 L132.769213,3.2982608 L133.66744,3.01874718 L133.66744,6.65242433 Z M131.534151,1.45347086 C131.197315,1.45347086 131.028898,1.28576269 131.028898,0.894443608 C131.028898,0.503124529 131.197315,0.335416353 131.534151,0.335416353 C131.870986,0.335416353 132.095543,0.503124529 132.095543,0.894443608 C132.095543,1.28576269 131.927125,1.45347086 131.534151,1.45347086 Z" id="Shape"></path>
                            <polygon id="Path" points="135.913008 8.88853335 135.014781 8.88853335 135.014781 0.894443608 135.913008 0.61492998"></polygon>
                            <path d="M139.000664,11.3482533 C138.551551,11.3482533 138.158576,11.2364478 137.765602,11.0687396 L137.316488,10.0624906 C137.990159,10.3979069 138.551551,10.5097124 139.000664,10.5097124 C140.01117,10.5097124 140.516423,9.83887969 140.628701,8.83263063 L139.28136,8.83263063 C137.87788,8.83263063 136.979653,7.88228429 136.979653,6.03749435 C136.979653,4.13680169 137.821741,3.18645535 139.28136,3.18645535 C140.797119,3.18645535 141.639207,4.36041259 141.526929,5.9256889 L141.526929,8.04999247 L143.267244,8.04999247 L143.267244,8.88853335 L141.526929,8.88853335 C141.41465,10.3979069 140.628701,11.3482533 139.000664,11.3482533 Z M139.3375,4.02499624 C138.383133,4.02499624 137.93402,4.69582894 137.93402,6.09339708 C137.93402,7.43506249 138.383133,8.1058952 139.3375,8.1058952 L140.74098,8.1058952 C140.74098,8.1058952 140.74098,6.65242433 140.74098,6.09339708 C140.74098,4.69582894 140.235727,4.02499624 139.3375,4.02499624 Z" id="Shape"></path>
                            <path d="M151.800403,8.88853335 L151.182871,8.88853335 C150.453062,8.88853335 149.947809,8.72082518 149.498695,8.27360337 C149.217999,9.22394971 148.48819,9.72707424 147.421545,9.72707424 C146.3549,9.72707424 145.737369,9.22394971 145.344394,8.38540882 C144.95142,8.72082518 144.446167,8.88853335 143.828636,8.88853335 L143.154965,8.88853335 L143.154965,8.04999247 L143.716357,8.04999247 C144.502306,8.04999247 145.007559,7.60277067 145.063698,6.82013251 C145.119837,5.31075892 145.737369,4.19270441 147.365406,4.19270441 C148.825025,4.19270441 149.498695,5.08714802 149.610974,6.54061888 C149.610974,7.54686794 150.060087,8.04999247 151.014454,8.04999247 L151.744263,8.04999247 L151.744263,8.88853335 L151.800403,8.88853335 Z M147.421545,5.03124529 C146.467178,5.03124529 146.074204,5.64617527 146.074204,6.93193796 C146.074204,8.27360337 146.467178,8.88853335 147.421545,8.88853335 C148.375911,8.88853335 148.768886,8.27360337 148.768886,6.93193796 C148.768886,5.64617527 148.43205,5.03124529 147.421545,5.03124529 Z" id="Shape"></path>
                            <path d="M154.551223,6.65242433 C154.551223,7.93818702 153.709135,8.83263063 152.361795,8.83263063 L151.688124,8.83263063 L151.688124,7.99408975 L152.305655,7.99408975 C153.203883,7.99408975 153.652996,7.49096522 153.652996,6.48471616 L153.652996,0.950346333 L154.551223,0.670832706 L154.551223,6.65242433 L154.551223,6.65242433 Z" id="Path"></path>
                            <polygon id="Path" points="156.796791 8.88853335 155.898564 8.88853335 155.898564 0.894443608 156.796791 0.61492998"></polygon>
                            <path d="M166.340456,8.88853335 L165.891342,8.88853335 C165.049254,8.88853335 164.431723,8.60901973 164.038749,7.99408975 C163.701913,8.60901973 163.084382,8.88853335 162.186155,8.88853335 C160.838814,8.88853335 159.996726,7.99408975 159.996726,5.98159163 C159.996726,4.36041259 160.614257,3.13055263 162.186155,3.0746499 L164.544001,3.0746499 L164.544001,6.54061888 C164.544001,7.54686794 164.993115,8.04999247 165.947481,8.04999247 L166.284317,8.04999247 L166.284317,8.88853335 L166.340456,8.88853335 Z M163.701913,3.85728806 L162.298433,3.85728806 C161.344067,3.85728806 160.838814,4.58402349 160.838814,5.98159163 C160.838814,7.43506249 161.287928,8.04999247 162.298433,8.04999247 C163.2528,8.04999247 163.701913,7.43506249 163.701913,5.98159163 L163.701913,3.85728806 Z M161.961598,1.45347086 C161.624763,1.45347086 161.400206,1.28576269 161.400206,0.894443608 C161.400206,0.503124529 161.568624,0.335416353 161.961598,0.335416353 C162.298433,0.335416353 162.466851,0.503124529 162.466851,0.894443608 C162.466851,1.28576269 162.354573,1.45347086 161.961598,1.45347086 Z M163.645774,1.45347086 C163.308939,1.45347086 163.140521,1.28576269 163.140521,0.894443608 C163.140521,0.503124529 163.308939,0.335416353 163.645774,0.335416353 C163.982609,0.335416353 164.207166,0.503124529 164.207166,0.894443608 C164.207166,1.28576269 164.038749,1.45347086 163.645774,1.45347086 Z" id="Shape"></path>
                            <path d="M167.912354,4.63992622 L168.810581,4.36041259 L168.810581,8.04999247 L171.505262,8.04999247 L171.505262,4.08089896 L172.40349,3.80138533 L172.40349,8.04999247 C173.975387,8.04999247 175.21045,8.04999247 175.21045,8.04999247 L175.21045,3.46596898 L176.108677,3.18645535 L176.108677,8.04999247 L177.736714,8.04999247 L177.736714,8.88853335 L166.284317,8.88853335 L166.284317,8.04999247 L168.024632,8.04999247 L168.024632,4.63992622 L167.912354,4.63992622 Z" id="Path"></path>
                            <path d="M187.392657,6.65242433 C187.392657,7.99408975 186.606708,8.83263063 185.203228,8.83263063 L177.512157,8.83263063 L177.512157,7.99408975 L179.196333,7.99408975 L179.196333,4.47221804 L180.09456,4.19270441 L180.09456,7.99408975 L182.789242,7.99408975 L182.789242,3.91319078 L183.687469,3.63367716 L183.687469,7.99408975 L185.090949,7.99408975 C185.989177,7.99408975 186.494429,7.49096522 186.494429,6.48471616 L186.494429,3.2982608 L187.392657,3.01874718 L187.392657,6.65242433 L187.392657,6.65242433 Z" id="Path"></path>
                            <path d="M190.480313,11.3482533 C190.031199,11.3482533 189.638225,11.2364478 189.24525,11.0687396 L188.796137,10.0624906 C189.469807,10.3979069 190.031199,10.5097124 190.480313,10.5097124 C191.490818,10.5097124 191.996071,9.83887969 192.10835,8.83263063 L190.761009,8.83263063 C189.357529,8.83263063 188.459301,7.88228429 188.459301,6.03749435 C188.459301,4.13680169 189.30139,3.18645535 190.761009,3.18645535 C192.276767,3.18645535 193.118855,4.36041259 193.006577,5.9256889 L193.006577,8.04999247 L194.746892,8.04999247 L194.746892,8.88853335 L193.006577,8.88853335 C192.894298,10.3979069 192.10835,11.3482533 190.480313,11.3482533 Z M192.332906,2.4038172 L188.627719,2.4038172 L189.189111,1.84478994 L189.750503,1.84478994 L189.750503,1.56527631 C189.750503,0.670832706 190.311895,0 191.210122,0 C191.603097,0 191.883793,0.167708176 192.220628,0.447221804 L191.771514,0.894443608 C191.546958,0.670832706 191.322401,0.559027255 191.153983,0.559027255 C190.70487,0.559027255 190.368034,0.950346333 190.368034,1.45347086 L190.368034,1.90069267 L192.389046,1.90069267 L192.389046,2.4038172 L192.332906,2.4038172 Z M190.817148,4.02499624 C189.862782,4.02499624 189.413668,4.69582894 189.413668,6.09339708 C189.413668,7.43506249 189.862782,8.1058952 190.817148,8.1058952 L192.220628,8.1058952 C192.220628,8.1058952 192.220628,6.65242433 192.220628,6.09339708 C192.220628,4.69582894 191.715375,4.02499624 190.817148,4.02499624 Z" id="Shape"></path>
                            <path d="M198.732775,8.88853335 C198.002966,8.88853335 197.385435,8.60901973 196.99246,8.04999247 C196.655625,8.66492245 195.813537,8.88853335 195.196006,8.88853335 L194.690753,8.88853335 L194.690753,8.04999247 L195.139867,8.04999247 C196.094233,8.04999247 196.543347,7.54686794 196.543347,6.54061888 C196.543347,6.48471616 196.543347,6.42881343 196.543347,6.03749435 C196.543347,4.13680169 197.385435,3.24235808 198.788915,3.24235808 C200.248534,3.24235808 201.034483,4.19270441 201.034483,6.03749435 C200.978344,7.93818702 200.136256,8.88853335 198.732775,8.88853335 Z M198.732775,4.08089896 C197.834548,4.08089896 197.385435,4.75173167 197.385435,6.09339708 C197.385435,7.43506249 197.834548,8.04999247 198.732775,8.04999247 C199.631003,8.04999247 200.080116,7.37915977 200.080116,6.09339708 C200.080116,4.75173167 199.631003,4.08089896 198.732775,4.08089896 Z" id="Shape"></path>
                        </g>
                    </g>
                    <g id="Group" transform="translate(210.517241, 0.000000)">
                        <path d="M48.9366504,44.8332292 C48.9366504,44.8332292 50.9109767,41.6830901 44.4803138,40.389283 C37.541967,39.0392234 30.5472109,39.7142532 25.1319158,42.1893625 C19.7166207,44.6644717 18.2499783,43.876937 18.2499783,43.876937 C18.2499783,43.876937 21.5217191,42.3581199 31.44976,45.1144916 C38.3316975,47.027076 45.6649096,46.6333086 46.7930961,46.1270363 C47.9776919,45.6207639 48.9366504,44.8332292 48.9366504,44.8332292 Z" id="Path" fill="#8C6829"></path>
                        <path d="M11.8193154,31.2201282 C10.521901,30.0950786 7.87066274,27.4512118 6.46042965,23.2322756 C6.00915506,21.9384685 5.27583386,19.4633592 5.67069912,16.3694726 C6.34761101,11.3067491 9.6757611,6.63779303 9.6757611,6.69404551 C8.77321192,7.36907531 0.932315936,13.7818584 1.15795323,23.0072657 C1.27077188,27.8449792 3.63996347,32.0639155 4.09123806,32.8514502 C5.33224318,35.0452971 6.68606695,36.3953567 7.92707207,37.6891638 C12.8346832,42.8081398 18.024341,45.395754 20.6191699,46.6333086 C23.4960454,47.9833682 25.9780556,48.8271555 27.2190608,49.2209229 C29.3062057,49.8959527 30.6600295,50.1772151 33.1984491,50.7959924 C36.8650551,51.6397796 38.5573348,51.8647896 40.4188425,51.5835272 C40.8701171,51.5272747 41.4906196,51.3585172 41.9418942,51.0772548 C44.4239045,49.5021853 47.131552,47.3645909 48.9930597,45.0582391 C48.9930597,45.0582391 48.9930597,45.0582391 48.9930597,45.0582391 C43.1828993,44.4957143 38.1060602,43.651927 34.5522728,42.7518873 C30.8292575,41.7955951 27.5575167,41.0080603 23.5524547,39.1517284 C18.3063876,36.5641141 14.4705536,33.5827325 11.8193154,31.2201282 Z" id="Path" fill="#C09949"></path>
                        <path d="M21.5781284,27.6762218 C20.2243046,28.5762615 21.5217191,30.5450984 22.8755428,29.7575637 C23.2139988,29.5888062 23.4960454,29.4200488 23.778092,29.2512913 C26.8241955,27.6199693 33.1420397,26.2136572 40.1932052,27.6199693 C46.962324,28.9700289 50.2904741,28.9137764 52.5468471,28.0699892 C53.9006708,27.5637168 54.9160387,25.9323948 54.9160387,25.9323948 C54.9160387,25.9323948 55.2544946,23.0072657 47.4700079,22.2197309 C41.4342103,21.6009536 29.9831176,22.1072259 21.5781284,27.6762218 Z" id="Path" fill="#286B96"></path>
                        <path d="M50.5725207,13.1630811 C50.6853394,12.8255662 50.6289301,12.4880513 50.4032928,12.2067889 C49.7827902,11.5317591 48.0905105,10.2942044 45.3264536,9.95668954 C42.2803502,9.56292216 34.6086822,8.55037746 25.7524183,11.9817789 C24.6242319,12.4317988 26.4857395,14.0631208 27.613926,13.6693534 L26.4857395,13.9506159 C26.4857395,13.9506159 24.4550039,13.6693534 31.1677134,14.1756258 C36.6394178,14.5693932 42.6188061,16.2569677 45.6649096,15.9194528 C48.4853758,15.6944428 50.0084275,14.6256457 50.5725207,13.1630811 Z" id="Path" fill="#7C7B7C"></path>
                        <path d="M23.8909107,52.146052 C28.8549311,50.6272349 32.1830812,51.1897598 34.1009982,51.7522846 C34.4958635,51.8647896 36.6394178,52.5398194 36.5830085,53.1585967 C36.5265992,53.7211215 34.7215008,54.0586364 32.6907652,54.4524038 C31.9010346,54.6211613 31.2805321,54.7336662 30.3779829,54.8461712 C26.2601023,55.2961911 22.7627242,54.6211613 22.3114496,54.5649088 C22.029403,54.5086563 19.4345741,54.0023839 16.7833359,52.8210818 C13.2859578,51.3022647 5.6142898,46.9145711 1.94768376,37.8579212 C-0.308689184,32.2889254 -0.139461213,27.1699494 0.198994729,24.3010728 C0.0861760813,27.001192 0.0297667577,36.0015893 6.17838304,43.2019072 C10.0706264,47.7583583 15.2038748,50.1772151 17.0653825,51.0210023 C18.024341,51.4710222 20.1678953,52.4273144 23.1011801,53.1023442 C26.2601023,53.8336265 28.3472472,53.8336265 29.5882523,53.777374 C30.8292575,53.7211215 32.8035838,53.4398591 32.8035838,53.1023442 C32.8035838,52.7085768 30.3779829,52.3710619 29.8138896,52.3148094 C28.3472472,52.0897995 26.3165116,51.9210421 23.8909107,52.146052 Z" id="Path" fill="#C09949"></path>
                        <path d="M34.2138169,3.20639155 C34.1009982,3.26264403 33.3112677,3.7126639 33.1984491,4.50019866 C33.0856304,5.00647101 33.2548584,5.40023839 33.367677,5.62524833 C33.706133,6.41278309 34.3830449,6.86280296 35.2291847,7.25657034 C35.5676407,7.42532779 36.9214644,7.98785262 40.1367959,8.32536752 C40.9829357,8.38162001 42.1111222,8.43787249 43.464946,8.32536752 C45.044407,8.21286256 45.7777282,8.15661007 45.9469562,7.81909518 C46.3982308,6.75029799 42.3367595,4.0501788 42.0547129,3.88142135 C41.377801,3.43140148 38.7829721,1.80007946 35.3984127,1.06879718 C34.2138169,0.843787249 32.7471745,0.562524833 32.2394906,0.506272349 C32.0702626,0.506272349 30.8856668,0.281262416 29.3062057,0.225009933 C29.2497964,0.225009933 32.8035838,1.12504967 34.3830449,1.51881705 C35.0599567,1.6875745 35.9060966,1.91258443 36.8086458,2.30635181 C37.372739,2.53136175 37.7676043,2.75637168 38.6137441,3.15013906 C39.9111586,3.76891638 40.5316611,4.16268376 41.0957544,4.72520859 C41.4906196,5.11897598 41.7162569,5.28773343 41.6598476,5.51274336 C41.547029,6.13152068 39.9111586,6.41278309 38.7829721,6.41278309 C37.4855577,6.41278309 34.7779101,6.13152068 34.4394542,4.72520859 C34.2138169,3.76891638 36.0189152,2.86887665 36.5265992,2.86887665 C38.3316975,2.81262416 35.5112313,2.53136175 34.2138169,3.20639155 Z" id="Path" fill="#C7C7C6"></path>
                        <path d="M46.5110494,14.6818981 C45.7777282,14.8506556 45.1008164,14.9631606 44.3674951,15.019413 C43.2393087,15.0756655 42.1111222,15.131918 40.3624332,15.019413 C37.6547856,14.7944031 35.5676407,14.4006357 34.8907288,14.2881308 C29.870299,13.2755861 27.3318794,12.7693137 24.9626878,10.9129818 C22.9883615,9.39416471 22.5934962,8.15661007 22.4806776,7.42532779 C22.3114496,6.13152068 22.9319522,5.06272349 23.2139988,4.55645115 C24.1729573,2.75637168 25.865237,1.96883691 26.5985582,1.63132201 C27.0498328,1.40631208 27.4446981,1.29380712 27.7267447,1.18130215 C26.6549675,1.29380712 25.8088277,1.46256457 25.1319158,1.6875745 C24.6806412,1.80007946 23.8909107,2.0250894 22.9883615,2.53136175 C22.0858123,2.98138161 21.4089004,3.48765396 20.9576258,3.93767383 C20.3371233,4.44394618 19.2089368,5.51274336 18.8140715,7.14406538 C18.3063876,9.22540726 19.2653461,11.0817392 19.7166207,11.869274 C23.5524547,19.0695918 37.8240136,20.8696713 39.459884,21.0384287 L39.459884,21.0384287 C41.547029,21.3196912 43.295718,21.4884486 44.5931324,21.5447011 C49.6135622,21.8259635 51.8699352,21.4321961 52.9981217,21.0946812 C53.5058056,20.9821763 53.9570802,20.7571663 54.2391268,20.6446614 C54.2391268,20.6446614 54.2391268,20.6446614 54.2391268,20.6446614 C54.2391268,20.6446614 54.2391268,20.6446614 54.2391268,20.6446614 C54.2391268,20.6446614 53.3929869,16.7069875 50.5725207,12.4317988 C50.967386,13.1068286 48.4853758,14.2881308 46.5110494,14.6818981 Z" id="Path" fill="#C7C7C6"></path>
                        <path d="M40.4188425,26.3824147 C26.6549675,22.8385082 19.0397088,17.8320372 16.106424,13.6693534 C13.2295485,9.50666967 13.4551858,1.80007946 26.3729209,0.0562524833 C26.4293302,0.0562524833 26.4293302,0 26.3729209,0 C24.0037293,0.0562524833 12.6090459,0.787534766 9.61935178,10.125447 C5.50147115,22.8385082 26.4857395,33.4139751 30.1523456,34.9327921 C33.8753609,36.4516092 43.295718,40.7267979 52.3776191,38.2516886 C52.716075,38.1391837 53.054531,37.8016688 53.1673496,37.5204063 C55.3673133,32.6826928 54.972448,26.0448998 54.972448,25.8198898 C54.9160387,25.7073849 49.387925,28.745019 40.4188425,26.3824147 Z" id="Path" fill="#4384B8"></path>
                    </g>
                </g>
            </g>
        </g>
    </g>
</svg>